<?xml version="1.0" encoding="iso-8859-1"?>
<!-- Generator: Adobe Illustrator 17.0.2, SVG Export Plug-In . SVG Version: 6.00 Build 0)  -->
<!DOCTYPE svg PUBLIC "-//W3C//DTD SVG 1.1//EN" "http://www.w3.org/Graphics/SVG/1.1/DTD/svg11.dtd">
<svg version="1.1" id="Layer_1" xmlns="http://www.w3.org/2000/svg" xmlns:xlink="http://www.w3.org/1999/xlink" x="0px" y="0px"
	 width="621.79px" height="151.615px" viewBox="0 0 621.79 151.615" style="enable-background:new 0 0 621.79 151.615;"
	 xml:space="preserve">
<path d="M242.258,1.084h-5.672c-3.923,0-7.576,1.538-10.28,4.34c-2.707,2.801-4.194,6.567-4.194,10.619v46.023
	c0,14.542-10.234,26.378-22.809,26.378c-12.374,0-22.441-11.836-22.441-26.391v-46.01c0-8.39-6.37-14.959-14.498-14.959h-5.674
	c-8.272,0-14.995,6.711-14.995,14.959v46.726c0,35.053,24.544,61.49,57.09,61.49c32.791,0,58.483-27.008,58.483-61.49V16.043
	C257.268,7.795,250.531,1.084,242.258,1.084z M464.234,56.81h-5.636c-7.987,0-14.501,6.47-14.501,14.433v19.083V93.4v15.877
	c0,8.094,6.287,14.435,14.299,14.435h5.649c7.985,0,14.487-6.47,14.487-14.435V90.194v-3.073V71.243
	C478.533,63.148,472.259,56.81,464.234,56.81z M397.087,83.769c-11.214,0-19.971,8.857-19.971,20.157
	c0,11.297,8.757,20.142,19.971,20.142c11.205,0,19.984-8.845,19.984-20.142C417.072,92.626,408.292,83.769,397.087,83.769z
	 M561.702,1.645c-33.478,0-59.723,26.854-59.723,61.123c0,34.185,26.022,60.942,59.215,60.942c33.407,0,60.597-27.415,60.597-61.122
	C621.79,28.965,594.836,1.645,561.702,1.645z M587.558,62.769c0,15.887-11.698,28.82-26.055,28.82
	c-14.276,0-25.454-12.659-25.454-28.82c0-15.723,12.359-29.001,27.023-29.001c13.391,0,23.553,11.359,24.496,26.746
	C587.558,61.695,587.558,62.769,587.558,62.769z M389.172,21.919v-5.876c0-8.082-6.277-14.41-14.301-14.41h-1.607h-22.416h-39.447
	h-0.568h-23.456c-8.035,0-14.298,6.329-14.298,14.41v5.876c0,8.106,6.263,14.435,14.298,14.435h17.313
	c9.216,0,9.216,4.9,9.216,6.986v65.949c0,8.082,6.276,14.423,14.288,14.423h0.188h5.462h0.2c8.011,0,14.287-6.341,14.287-14.423
	V43.339c0-2.086,0-6.986,9.216-6.986h15.717h1.607C382.895,36.354,389.172,30.025,389.172,21.919z M59.707,1.633
	C26.245,1.633,0,28.488,0,62.769v76.082c0,7.163,5.567,12.764,12.655,12.764h5.649c7.09,0,12.846-5.708,12.846-12.764v-9.228
	c0-3.265,3.357-5.912,7.517-5.912h22.458l-0.095-0.095c32.555-0.989,58.767-27.938,58.767-61.039
	C119.797,28.965,92.841,1.633,59.707,1.633z M85.776,62.792c0,16.043-11.82,29.12-26.34,29.12c-14.401,0-25.697-12.802-25.697-29.12
	c0-15.9,12.501-29.322,27.292-29.322c13.544,0,23.823,11.49,24.769,27.021C85.776,61.695,85.776,62.792,85.776,62.792z M461.575,0
	c-11.214,0-19.971,8.844-19.971,20.132c0,11.311,8.757,20.157,19.971,20.157c11.193,0,19.97-8.846,19.97-20.145
	C481.544,8.844,472.768,0,461.575,0z"/>
<g>
</g>
<g>
</g>
<g>
</g>
<g>
</g>
<g>
</g>
<g>
</g>
<g>
</g>
<g>
</g>
<g>
</g>
<g>
</g>
<g>
</g>
<g>
</g>
<g>
</g>
<g>
</g>
<g>
</g>
</svg>
